<mxfile host="app.diagrams.net" agent="Mozilla/5.0 (Windows NT 10.0; Win64; x64) AppleWebKit/537.36 (KHTML, like Gecko) Chrome/138.0.0.0 Safari/537.36" version="28.0.4">
  <diagram name="Page-1" id="Qc2j29BkZQCwujwfNHXb">
    <mxGraphModel dx="1864" dy="1098" grid="1" gridSize="10" guides="1" tooltips="1" connect="1" arrows="1" fold="1" page="1" pageScale="1" pageWidth="1400" pageHeight="850" math="0" shadow="0">
      <root>
        <mxCell id="0" />
        <mxCell id="1" parent="0" />
        <mxCell id="mNVwAcbcl_QrP8iyDvm8-1158" value="" style="group" vertex="1" connectable="0" parent="1">
          <mxGeometry x="40" y="40" width="1320" height="760" as="geometry" />
        </mxCell>
        <mxCell id="mNVwAcbcl_QrP8iyDvm8-1078" value="" style="edgeStyle=orthogonalEdgeStyle;rounded=0;orthogonalLoop=1;jettySize=auto;html=1;fontFamily=Helvetica;fontSize=12;fontColor=default;" edge="1" parent="mNVwAcbcl_QrP8iyDvm8-1158" source="mNVwAcbcl_QrP8iyDvm8-1079" target="mNVwAcbcl_QrP8iyDvm8-1098">
          <mxGeometry relative="1" as="geometry" />
        </mxCell>
        <mxCell id="mNVwAcbcl_QrP8iyDvm8-1079" value="Bartolomeo (Gil) Viva &amp;amp; Lolita" style="whiteSpace=wrap;html=1;rounded=1;strokeColor=#6c8ebf;fillColor=#dae8fc;strokeWidth=2;fontSize=15;" vertex="1" parent="mNVwAcbcl_QrP8iyDvm8-1158">
          <mxGeometry x="755.8974358974359" y="229.3103448275862" width="203.07692307692307" height="26.206896551724135" as="geometry" />
        </mxCell>
        <mxCell id="mNVwAcbcl_QrP8iyDvm8-1080" value="Jovita Viva &amp;amp; Romeo Goro" style="rounded=1;whiteSpace=wrap;html=1;fillColor=#dae8fc;strokeColor=#6c8ebf;strokeWidth=2;fontSize=15;" vertex="1" parent="mNVwAcbcl_QrP8iyDvm8-1158">
          <mxGeometry x="496.4102564102564" y="72.06896551724138" width="191.7948717948718" height="26.206896551724135" as="geometry" />
        </mxCell>
        <mxCell id="mNVwAcbcl_QrP8iyDvm8-1081" value="" style="edgeStyle=orthogonalEdgeStyle;rounded=0;orthogonalLoop=1;jettySize=auto;html=1;fontFamily=Helvetica;fontSize=12;fontColor=default;" edge="1" parent="mNVwAcbcl_QrP8iyDvm8-1158" source="mNVwAcbcl_QrP8iyDvm8-1082" target="mNVwAcbcl_QrP8iyDvm8-1083">
          <mxGeometry relative="1" as="geometry" />
        </mxCell>
        <mxCell id="mNVwAcbcl_QrP8iyDvm8-1082" value="Joan &amp;amp; Jhulius Donato" style="rounded=1;whiteSpace=wrap;html=1;fillColor=#dae8fc;strokeColor=#6c8ebf;strokeWidth=2;fontSize=15;" vertex="1" parent="mNVwAcbcl_QrP8iyDvm8-1158">
          <mxGeometry x="246.17435897435902" width="180.5128205128205" height="13.103448275862068" as="geometry" />
        </mxCell>
        <mxCell id="mNVwAcbcl_QrP8iyDvm8-1083" value="Jayden Chris" style="rounded=1;whiteSpace=wrap;html=1;fillColor=#dae8fc;strokeColor=#6c8ebf;strokeWidth=2;fontSize=15;" vertex="1" parent="mNVwAcbcl_QrP8iyDvm8-1158">
          <mxGeometry width="180.5128205128205" height="13.103448275862068" as="geometry" />
        </mxCell>
        <mxCell id="mNVwAcbcl_QrP8iyDvm8-1084" value="John Ruel" style="rounded=1;whiteSpace=wrap;html=1;fillColor=#dae8fc;strokeColor=#6c8ebf;strokeWidth=2;fontSize=15;" vertex="1" parent="mNVwAcbcl_QrP8iyDvm8-1158">
          <mxGeometry x="248.2051282051282" y="26.206896551724135" width="180.5128205128205" height="13.103448275862068" as="geometry" />
        </mxCell>
        <mxCell id="mNVwAcbcl_QrP8iyDvm8-1085" value="Mark Nathaniel" style="rounded=1;whiteSpace=wrap;html=1;fillColor=#dae8fc;strokeColor=#6c8ebf;strokeWidth=2;fontSize=15;" vertex="1" parent="mNVwAcbcl_QrP8iyDvm8-1158">
          <mxGeometry x="247.52820512820523" y="52.41379310344827" width="180.5128205128205" height="13.103448275862068" as="geometry" />
        </mxCell>
        <mxCell id="mNVwAcbcl_QrP8iyDvm8-1086" value="Romeo Jr." style="rounded=1;whiteSpace=wrap;html=1;fillColor=#dae8fc;strokeColor=#6c8ebf;strokeWidth=2;fontSize=15;" vertex="1" parent="mNVwAcbcl_QrP8iyDvm8-1158">
          <mxGeometry x="246.851282051282" y="78.62068965517241" width="180.5128205128205" height="13.103448275862068" as="geometry" />
        </mxCell>
        <mxCell id="mNVwAcbcl_QrP8iyDvm8-1087" value="Marvin Jay" style="rounded=1;whiteSpace=wrap;html=1;fillColor=#dae8fc;strokeColor=#6c8ebf;strokeWidth=2;fontSize=15;" vertex="1" parent="mNVwAcbcl_QrP8iyDvm8-1158">
          <mxGeometry x="248.2051282051282" y="104.82758620689654" width="180.5128205128205" height="13.103448275862068" as="geometry" />
        </mxCell>
        <mxCell id="mNVwAcbcl_QrP8iyDvm8-1088" value="Mary Joy" style="rounded=1;whiteSpace=wrap;html=1;fillColor=#dae8fc;strokeColor=#6c8ebf;strokeWidth=2;fontSize=15;" vertex="1" parent="mNVwAcbcl_QrP8iyDvm8-1158">
          <mxGeometry x="248.2051282051282" y="131.0344827586207" width="180.5128205128205" height="13.103448275862068" as="geometry" />
        </mxCell>
        <mxCell id="mNVwAcbcl_QrP8iyDvm8-1089" value="Mary Claire" style="rounded=1;whiteSpace=wrap;html=1;fillColor=#dae8fc;strokeColor=#6c8ebf;strokeWidth=2;fontSize=15;" vertex="1" parent="mNVwAcbcl_QrP8iyDvm8-1158">
          <mxGeometry x="248.2051282051282" y="157.24137931034483" width="180.5128205128205" height="13.103448275862068" as="geometry" />
        </mxCell>
        <mxCell id="mNVwAcbcl_QrP8iyDvm8-1090" value="" style="endArrow=classic;html=1;rounded=0;fontFamily=Helvetica;fontSize=12;fontColor=default;entryX=1;entryY=0.5;entryDx=0;entryDy=0;" edge="1" parent="mNVwAcbcl_QrP8iyDvm8-1158" target="mNVwAcbcl_QrP8iyDvm8-1082">
          <mxGeometry width="50" height="50" relative="1" as="geometry">
            <mxPoint x="462.56410256410254" y="6.551724137931034" as="sourcePoint" />
            <mxPoint x="338.46153846153845" y="58.96551724137931" as="targetPoint" />
          </mxGeometry>
        </mxCell>
        <mxCell id="mNVwAcbcl_QrP8iyDvm8-1091" value="" style="endArrow=classic;html=1;rounded=0;fontFamily=Helvetica;fontSize=12;fontColor=default;entryX=1;entryY=0.5;entryDx=0;entryDy=0;" edge="1" parent="mNVwAcbcl_QrP8iyDvm8-1158">
          <mxGeometry width="50" height="50" relative="1" as="geometry">
            <mxPoint x="462.56410256410254" y="32.758620689655174" as="sourcePoint" />
            <mxPoint x="428.71794871794873" y="32.62758620689667" as="targetPoint" />
          </mxGeometry>
        </mxCell>
        <mxCell id="mNVwAcbcl_QrP8iyDvm8-1092" value="" style="endArrow=classic;html=1;rounded=0;fontFamily=Helvetica;fontSize=12;fontColor=default;entryX=1;entryY=0.5;entryDx=0;entryDy=0;" edge="1" parent="mNVwAcbcl_QrP8iyDvm8-1158">
          <mxGeometry width="50" height="50" relative="1" as="geometry">
            <mxPoint x="462.56410256410254" y="58.96551724137931" as="sourcePoint" />
            <mxPoint x="428.71794871794873" y="58.83448275862081" as="targetPoint" />
          </mxGeometry>
        </mxCell>
        <mxCell id="mNVwAcbcl_QrP8iyDvm8-1093" value="" style="endArrow=classic;html=1;rounded=0;fontFamily=Helvetica;fontSize=12;fontColor=default;entryX=1;entryY=0.5;entryDx=0;entryDy=0;" edge="1" parent="mNVwAcbcl_QrP8iyDvm8-1158">
          <mxGeometry width="50" height="50" relative="1" as="geometry">
            <mxPoint x="462.56410256410254" y="111.37931034482759" as="sourcePoint" />
            <mxPoint x="428.71794871794873" y="111.24827586206908" as="targetPoint" />
          </mxGeometry>
        </mxCell>
        <mxCell id="mNVwAcbcl_QrP8iyDvm8-1094" value="" style="endArrow=classic;html=1;rounded=0;fontFamily=Helvetica;fontSize=12;fontColor=default;entryX=1;entryY=0.5;entryDx=0;entryDy=0;" edge="1" parent="mNVwAcbcl_QrP8iyDvm8-1158">
          <mxGeometry width="50" height="50" relative="1" as="geometry">
            <mxPoint x="462.56410256410254" y="137.58620689655172" as="sourcePoint" />
            <mxPoint x="428.71794871794873" y="137.58620689655172" as="targetPoint" />
          </mxGeometry>
        </mxCell>
        <mxCell id="mNVwAcbcl_QrP8iyDvm8-1095" value="" style="endArrow=classic;html=1;rounded=0;fontFamily=Helvetica;fontSize=12;fontColor=default;entryX=1;entryY=0.5;entryDx=0;entryDy=0;" edge="1" parent="mNVwAcbcl_QrP8iyDvm8-1158">
          <mxGeometry width="50" height="50" relative="1" as="geometry">
            <mxPoint x="462.56410256410254" y="163.79310344827584" as="sourcePoint" />
            <mxPoint x="428.71794871794873" y="163.66206896551736" as="targetPoint" />
          </mxGeometry>
        </mxCell>
        <mxCell id="mNVwAcbcl_QrP8iyDvm8-1096" value="" style="endArrow=none;html=1;rounded=0;fontFamily=Helvetica;fontSize=12;fontColor=default;" edge="1" parent="mNVwAcbcl_QrP8iyDvm8-1158">
          <mxGeometry width="50" height="50" relative="1" as="geometry">
            <mxPoint x="462.56410256410254" y="163.79310344827584" as="sourcePoint" />
            <mxPoint x="462.56410256410254" y="6.551724137931034" as="targetPoint" />
          </mxGeometry>
        </mxCell>
        <mxCell id="mNVwAcbcl_QrP8iyDvm8-1097" value="" style="endArrow=classic;html=1;rounded=0;fontFamily=Helvetica;fontSize=12;fontColor=default;exitX=0;exitY=0.5;exitDx=0;exitDy=0;" edge="1" parent="mNVwAcbcl_QrP8iyDvm8-1158" source="mNVwAcbcl_QrP8iyDvm8-1080">
          <mxGeometry width="50" height="50" relative="1" as="geometry">
            <mxPoint x="417.43589743589746" y="98.27586206896551" as="sourcePoint" />
            <mxPoint x="428.71794871794873" y="85.17241379310344" as="targetPoint" />
          </mxGeometry>
        </mxCell>
        <mxCell id="mNVwAcbcl_QrP8iyDvm8-1098" value="Violeta (Lagmay) Viva &amp;amp; Vicente Hinante" style="rounded=1;whiteSpace=wrap;html=1;fillColor=#dae8fc;strokeColor=#6c8ebf;strokeWidth=2;fontSize=11;" vertex="1" parent="mNVwAcbcl_QrP8iyDvm8-1158">
          <mxGeometry x="496.4102564102564" y="229.3103448275862" width="191.7948717948718" height="26.206896551724135" as="geometry" />
        </mxCell>
        <mxCell id="mNVwAcbcl_QrP8iyDvm8-1099" value="Abigail" style="rounded=1;whiteSpace=wrap;html=1;fillColor=#dae8fc;strokeColor=#6c8ebf;strokeWidth=2;fontSize=15;" vertex="1" parent="mNVwAcbcl_QrP8iyDvm8-1158">
          <mxGeometry x="248.2051282051282" y="196.55172413793102" width="180.5128205128205" height="13.103448275862068" as="geometry" />
        </mxCell>
        <mxCell id="mNVwAcbcl_QrP8iyDvm8-1100" value="Stephanie" style="rounded=1;whiteSpace=wrap;html=1;fillColor=#dae8fc;strokeColor=#6c8ebf;strokeWidth=2;fontSize=15;" vertex="1" parent="mNVwAcbcl_QrP8iyDvm8-1158">
          <mxGeometry x="248.2051282051282" y="222.75862068965517" width="180.5128205128205" height="13.103448275862068" as="geometry" />
        </mxCell>
        <mxCell id="mNVwAcbcl_QrP8iyDvm8-1101" value="Kimberly" style="rounded=1;whiteSpace=wrap;html=1;fillColor=#dae8fc;strokeColor=#6c8ebf;strokeWidth=2;fontSize=15;" vertex="1" parent="mNVwAcbcl_QrP8iyDvm8-1158">
          <mxGeometry x="248.2051282051282" y="248.9655172413793" width="180.5128205128205" height="13.103448275862068" as="geometry" />
        </mxCell>
        <mxCell id="mNVwAcbcl_QrP8iyDvm8-1102" value="Ariana Mae" style="rounded=1;whiteSpace=wrap;html=1;fillColor=#dae8fc;strokeColor=#6c8ebf;strokeWidth=2;fontSize=15;" vertex="1" parent="mNVwAcbcl_QrP8iyDvm8-1158">
          <mxGeometry x="248.2051282051282" y="275.17241379310343" width="180.5128205128205" height="13.103448275862068" as="geometry" />
        </mxCell>
        <mxCell id="mNVwAcbcl_QrP8iyDvm8-1103" value="" style="endArrow=classic;html=1;rounded=0;fontFamily=Helvetica;fontSize=12;fontColor=default;entryX=1;entryY=0.5;entryDx=0;entryDy=0;" edge="1" parent="mNVwAcbcl_QrP8iyDvm8-1158">
          <mxGeometry width="50" height="50" relative="1" as="geometry">
            <mxPoint x="462.56410256410254" y="203.04448275862057" as="sourcePoint" />
            <mxPoint x="428.71794871794873" y="202.9134482758621" as="targetPoint" />
          </mxGeometry>
        </mxCell>
        <mxCell id="mNVwAcbcl_QrP8iyDvm8-1104" value="" style="endArrow=classic;html=1;rounded=0;fontFamily=Helvetica;fontSize=12;fontColor=default;entryX=1;entryY=0.5;entryDx=0;entryDy=0;" edge="1" parent="mNVwAcbcl_QrP8iyDvm8-1158">
          <mxGeometry width="50" height="50" relative="1" as="geometry">
            <mxPoint x="462.56410256410254" y="229.25137931034473" as="sourcePoint" />
            <mxPoint x="428.71794871794873" y="229.12034482758622" as="targetPoint" />
          </mxGeometry>
        </mxCell>
        <mxCell id="mNVwAcbcl_QrP8iyDvm8-1105" value="" style="endArrow=classic;html=1;rounded=0;fontFamily=Helvetica;fontSize=12;fontColor=default;entryX=1;entryY=0.5;entryDx=0;entryDy=0;" edge="1" parent="mNVwAcbcl_QrP8iyDvm8-1158">
          <mxGeometry width="50" height="50" relative="1" as="geometry">
            <mxPoint x="462.56410256410254" y="255.45827586206886" as="sourcePoint" />
            <mxPoint x="428.71794871794873" y="255.32724137931035" as="targetPoint" />
          </mxGeometry>
        </mxCell>
        <mxCell id="mNVwAcbcl_QrP8iyDvm8-1106" value="" style="endArrow=classic;html=1;rounded=0;fontFamily=Helvetica;fontSize=12;fontColor=default;entryX=1;entryY=0.5;entryDx=0;entryDy=0;" edge="1" parent="mNVwAcbcl_QrP8iyDvm8-1158">
          <mxGeometry width="50" height="50" relative="1" as="geometry">
            <mxPoint x="462.56410256410254" y="281.665172413793" as="sourcePoint" />
            <mxPoint x="428.71794871794873" y="281.5341379310345" as="targetPoint" />
          </mxGeometry>
        </mxCell>
        <mxCell id="mNVwAcbcl_QrP8iyDvm8-1107" value="" style="endArrow=none;html=1;rounded=0;fontFamily=Helvetica;fontSize=12;fontColor=default;" edge="1" parent="mNVwAcbcl_QrP8iyDvm8-1158">
          <mxGeometry width="50" height="50" relative="1" as="geometry">
            <mxPoint x="462.56410256410254" y="281.7241379310345" as="sourcePoint" />
            <mxPoint x="462.56410256410254" y="203.10344827586206" as="targetPoint" />
          </mxGeometry>
        </mxCell>
        <mxCell id="mNVwAcbcl_QrP8iyDvm8-1108" value="" style="endArrow=none;html=1;rounded=0;fontFamily=Helvetica;fontSize=12;fontColor=default;entryX=0;entryY=0.5;entryDx=0;entryDy=0;" edge="1" parent="mNVwAcbcl_QrP8iyDvm8-1158" target="mNVwAcbcl_QrP8iyDvm8-1098">
          <mxGeometry width="50" height="50" relative="1" as="geometry">
            <mxPoint x="462.56410256410254" y="242.41379310344826" as="sourcePoint" />
            <mxPoint x="507.6923076923077" y="242.41379310344826" as="targetPoint" />
          </mxGeometry>
        </mxCell>
        <mxCell id="mNVwAcbcl_QrP8iyDvm8-1109" value="Jocelyn" style="rounded=1;whiteSpace=wrap;html=1;fillColor=#dae8fc;strokeColor=#6c8ebf;strokeWidth=2;fontSize=15;" vertex="1" parent="mNVwAcbcl_QrP8iyDvm8-1158">
          <mxGeometry x="248.2051282051282" y="314.48275862068965" width="180.5128205128205" height="13.103448275862068" as="geometry" />
        </mxCell>
        <mxCell id="mNVwAcbcl_QrP8iyDvm8-1110" value="Jerico" style="rounded=1;whiteSpace=wrap;html=1;fillColor=#dae8fc;strokeColor=#6c8ebf;strokeWidth=2;fontSize=15;" vertex="1" parent="mNVwAcbcl_QrP8iyDvm8-1158">
          <mxGeometry x="248.2051282051282" y="340.6896551724138" width="180.5128205128205" height="13.103448275862068" as="geometry" />
        </mxCell>
        <mxCell id="mNVwAcbcl_QrP8iyDvm8-1111" value="Violeta (Lagmay) Viva &amp;amp; Vicente Hinante" style="rounded=1;whiteSpace=wrap;html=1;fillColor=#dae8fc;strokeColor=#6c8ebf;strokeWidth=2;fontSize=12;" vertex="1" parent="mNVwAcbcl_QrP8iyDvm8-1158">
          <mxGeometry x="496.4102564102564" y="321.0344827586207" width="191.7948717948718" height="26.206896551724135" as="geometry" />
        </mxCell>
        <mxCell id="mNVwAcbcl_QrP8iyDvm8-1112" value="" style="endArrow=none;html=1;rounded=0;fontFamily=Helvetica;fontSize=12;fontColor=default;" edge="1" parent="mNVwAcbcl_QrP8iyDvm8-1158">
          <mxGeometry width="50" height="50" relative="1" as="geometry">
            <mxPoint x="463.24102564102554" y="334.13793103448273" as="sourcePoint" />
            <mxPoint x="496.4102564102564" y="334.13793103448273" as="targetPoint" />
          </mxGeometry>
        </mxCell>
        <mxCell id="mNVwAcbcl_QrP8iyDvm8-1113" value="" style="endArrow=none;html=1;rounded=0;fontFamily=Helvetica;fontSize=12;fontColor=default;" edge="1" parent="mNVwAcbcl_QrP8iyDvm8-1158">
          <mxGeometry width="50" height="50" relative="1" as="geometry">
            <mxPoint x="463.24102564102554" y="347.2413793103448" as="sourcePoint" />
            <mxPoint x="463.24102564102554" y="321.0344827586207" as="targetPoint" />
          </mxGeometry>
        </mxCell>
        <mxCell id="mNVwAcbcl_QrP8iyDvm8-1114" value="" style="endArrow=classic;html=1;rounded=0;fontFamily=Helvetica;fontSize=12;fontColor=default;" edge="1" parent="mNVwAcbcl_QrP8iyDvm8-1158">
          <mxGeometry width="50" height="50" relative="1" as="geometry">
            <mxPoint x="463.24102564102554" y="321.0344827586207" as="sourcePoint" />
            <mxPoint x="429.3948717948717" y="321.0344827586207" as="targetPoint" />
          </mxGeometry>
        </mxCell>
        <mxCell id="mNVwAcbcl_QrP8iyDvm8-1115" value="" style="endArrow=classic;html=1;rounded=0;fontFamily=Helvetica;fontSize=12;fontColor=default;" edge="1" parent="mNVwAcbcl_QrP8iyDvm8-1158">
          <mxGeometry width="50" height="50" relative="1" as="geometry">
            <mxPoint x="463.24102564102554" y="347.0972413793108" as="sourcePoint" />
            <mxPoint x="429.3948717948717" y="347.0972413793108" as="targetPoint" />
          </mxGeometry>
        </mxCell>
        <mxCell id="mNVwAcbcl_QrP8iyDvm8-1116" value="" style="edgeStyle=orthogonalEdgeStyle;rounded=0;orthogonalLoop=1;jettySize=auto;html=1;fontFamily=Helvetica;fontSize=12;fontColor=default;" edge="1" parent="mNVwAcbcl_QrP8iyDvm8-1158" source="mNVwAcbcl_QrP8iyDvm8-1117" target="mNVwAcbcl_QrP8iyDvm8-1118">
          <mxGeometry relative="1" as="geometry" />
        </mxCell>
        <mxCell id="mNVwAcbcl_QrP8iyDvm8-1117" value="Ronie Viva &amp;amp; Cerrie" style="rounded=1;whiteSpace=wrap;html=1;fillColor=#dae8fc;strokeColor=#6c8ebf;strokeWidth=2;fontSize=15;" vertex="1" parent="mNVwAcbcl_QrP8iyDvm8-1158">
          <mxGeometry x="496.4102564102564" y="380" width="191.7948717948718" height="26.206896551724135" as="geometry" />
        </mxCell>
        <mxCell id="mNVwAcbcl_QrP8iyDvm8-1118" value="Lester" style="rounded=1;whiteSpace=wrap;html=1;fillColor=#dae8fc;strokeColor=#6c8ebf;strokeWidth=2;fontSize=15;" vertex="1" parent="mNVwAcbcl_QrP8iyDvm8-1158">
          <mxGeometry x="248.2051282051282" y="386.55172413793105" width="180.5128205128205" height="13.103448275862068" as="geometry" />
        </mxCell>
        <mxCell id="mNVwAcbcl_QrP8iyDvm8-1119" value="" style="endArrow=classic;html=1;rounded=0;fontFamily=Helvetica;fontSize=12;fontColor=default;" edge="1" parent="mNVwAcbcl_QrP8iyDvm8-1158">
          <mxGeometry width="50" height="50" relative="1" as="geometry">
            <mxPoint x="722.051282051282" y="392.94620689655187" as="sourcePoint" />
            <mxPoint x="688.2051282051282" y="392.94620689655187" as="targetPoint" />
          </mxGeometry>
        </mxCell>
        <mxCell id="mNVwAcbcl_QrP8iyDvm8-1120" value="" style="endArrow=classic;html=1;rounded=0;fontFamily=Helvetica;fontSize=12;fontColor=default;" edge="1" parent="mNVwAcbcl_QrP8iyDvm8-1158">
          <mxGeometry width="50" height="50" relative="1" as="geometry">
            <mxPoint x="722.051282051282" y="333.98068965517257" as="sourcePoint" />
            <mxPoint x="688.2051282051282" y="333.98068965517257" as="targetPoint" />
          </mxGeometry>
        </mxCell>
        <mxCell id="mNVwAcbcl_QrP8iyDvm8-1121" value="" style="endArrow=classic;html=1;rounded=0;fontFamily=Helvetica;fontSize=12;fontColor=default;" edge="1" parent="mNVwAcbcl_QrP8iyDvm8-1158">
          <mxGeometry width="50" height="50" relative="1" as="geometry">
            <mxPoint x="722.051282051282" y="85.01517241379324" as="sourcePoint" />
            <mxPoint x="688.2051282051282" y="85.01517241379324" as="targetPoint" />
          </mxGeometry>
        </mxCell>
        <mxCell id="mNVwAcbcl_QrP8iyDvm8-1122" value="" style="endArrow=none;html=1;rounded=0;fontFamily=Helvetica;fontSize=12;fontColor=default;" edge="1" parent="mNVwAcbcl_QrP8iyDvm8-1158">
          <mxGeometry width="50" height="50" relative="1" as="geometry">
            <mxPoint x="722.051282051282" y="393.10344827586204" as="sourcePoint" />
            <mxPoint x="722.051282051282" y="85.17241379310344" as="targetPoint" />
          </mxGeometry>
        </mxCell>
        <mxCell id="mNVwAcbcl_QrP8iyDvm8-1123" value="Perry" style="rounded=1;whiteSpace=wrap;html=1;fillColor=#dae8fc;strokeColor=#6c8ebf;strokeWidth=2;fontSize=15;" vertex="1" parent="mNVwAcbcl_QrP8iyDvm8-1158">
          <mxGeometry x="247.52820512820523" y="425.8620689655172" width="180.5128205128205" height="13.103448275862068" as="geometry" />
        </mxCell>
        <mxCell id="mNVwAcbcl_QrP8iyDvm8-1124" value="Adrian Pryce" style="rounded=1;whiteSpace=wrap;html=1;fillColor=#dae8fc;strokeColor=#6c8ebf;strokeWidth=2;fontSize=15;" vertex="1" parent="mNVwAcbcl_QrP8iyDvm8-1158">
          <mxGeometry x="248.2051282051282" y="452.06896551724134" width="180.5128205128205" height="13.103448275862068" as="geometry" />
        </mxCell>
        <mxCell id="mNVwAcbcl_QrP8iyDvm8-1125" value="" style="endArrow=none;html=1;rounded=0;fontFamily=Helvetica;fontSize=12;fontColor=default;" edge="1" parent="mNVwAcbcl_QrP8iyDvm8-1158">
          <mxGeometry width="50" height="50" relative="1" as="geometry">
            <mxPoint x="463.24102564102554" y="445.51724137931035" as="sourcePoint" />
            <mxPoint x="496.4102564102564" y="445.51724137931035" as="targetPoint" />
          </mxGeometry>
        </mxCell>
        <mxCell id="mNVwAcbcl_QrP8iyDvm8-1126" value="" style="endArrow=none;html=1;rounded=0;fontFamily=Helvetica;fontSize=12;fontColor=default;" edge="1" parent="mNVwAcbcl_QrP8iyDvm8-1158">
          <mxGeometry width="50" height="50" relative="1" as="geometry">
            <mxPoint x="463.24102564102554" y="458.6206896551724" as="sourcePoint" />
            <mxPoint x="463.24102564102554" y="432.41379310344826" as="targetPoint" />
          </mxGeometry>
        </mxCell>
        <mxCell id="mNVwAcbcl_QrP8iyDvm8-1127" value="" style="endArrow=classic;html=1;rounded=0;fontFamily=Helvetica;fontSize=12;fontColor=default;" edge="1" parent="mNVwAcbcl_QrP8iyDvm8-1158">
          <mxGeometry width="50" height="50" relative="1" as="geometry">
            <mxPoint x="463.24102564102554" y="432.41379310344826" as="sourcePoint" />
            <mxPoint x="429.3948717948717" y="432.41379310344826" as="targetPoint" />
          </mxGeometry>
        </mxCell>
        <mxCell id="mNVwAcbcl_QrP8iyDvm8-1128" value="" style="endArrow=classic;html=1;rounded=0;fontFamily=Helvetica;fontSize=12;fontColor=default;" edge="1" parent="mNVwAcbcl_QrP8iyDvm8-1158">
          <mxGeometry width="50" height="50" relative="1" as="geometry">
            <mxPoint x="463.24102564102554" y="458.47655172413835" as="sourcePoint" />
            <mxPoint x="429.3948717948717" y="458.47655172413835" as="targetPoint" />
          </mxGeometry>
        </mxCell>
        <mxCell id="mNVwAcbcl_QrP8iyDvm8-1129" value="Abigail Tarnate &amp;amp; Percival Buking" style="rounded=1;whiteSpace=wrap;html=1;fillColor=#dae8fc;strokeColor=#6c8ebf;strokeWidth=2;fontSize=12;" vertex="1" parent="mNVwAcbcl_QrP8iyDvm8-1158">
          <mxGeometry x="496.4102564102564" y="432.41379310344826" width="191.7948717948718" height="26.206896551724135" as="geometry" />
        </mxCell>
        <mxCell id="mNVwAcbcl_QrP8iyDvm8-1130" value="Rhylee Jay" style="rounded=1;whiteSpace=wrap;html=1;fillColor=#dae8fc;strokeColor=#6c8ebf;strokeWidth=2;fontSize=15;" vertex="1" parent="mNVwAcbcl_QrP8iyDvm8-1158">
          <mxGeometry x="248.2051282051282" y="491.37931034482756" width="180.5128205128205" height="13.103448275862068" as="geometry" />
        </mxCell>
        <mxCell id="mNVwAcbcl_QrP8iyDvm8-1131" value="" style="edgeStyle=orthogonalEdgeStyle;rounded=0;orthogonalLoop=1;jettySize=auto;html=1;fontFamily=Helvetica;fontSize=12;fontColor=default;" edge="1" parent="mNVwAcbcl_QrP8iyDvm8-1158" source="mNVwAcbcl_QrP8iyDvm8-1132" target="mNVwAcbcl_QrP8iyDvm8-1130">
          <mxGeometry relative="1" as="geometry" />
        </mxCell>
        <mxCell id="mNVwAcbcl_QrP8iyDvm8-1132" value="Daisy Faith Tarnate &amp;amp; Renier Ducusin" style="rounded=1;whiteSpace=wrap;html=1;fillColor=#dae8fc;strokeColor=#6c8ebf;strokeWidth=2;fontSize=12;" vertex="1" parent="mNVwAcbcl_QrP8iyDvm8-1158">
          <mxGeometry x="496.4102564102564" y="484.8275862068965" width="191.7948717948718" height="26.206896551724135" as="geometry" />
        </mxCell>
        <mxCell id="mNVwAcbcl_QrP8iyDvm8-1133" value="Maria Theresa Tarnate" style="rounded=1;whiteSpace=wrap;html=1;fillColor=#dae8fc;strokeColor=#6c8ebf;strokeWidth=2;fontSize=15;" vertex="1" parent="mNVwAcbcl_QrP8iyDvm8-1158">
          <mxGeometry x="496.4102564102564" y="537.2413793103448" width="191.7948717948718" height="26.206896551724135" as="geometry" />
        </mxCell>
        <mxCell id="mNVwAcbcl_QrP8iyDvm8-1134" value="" style="edgeStyle=orthogonalEdgeStyle;rounded=0;orthogonalLoop=1;jettySize=auto;html=1;fontFamily=Helvetica;fontSize=12;fontColor=default;" edge="1" parent="mNVwAcbcl_QrP8iyDvm8-1158" source="mNVwAcbcl_QrP8iyDvm8-1135" target="mNVwAcbcl_QrP8iyDvm8-1136">
          <mxGeometry relative="1" as="geometry" />
        </mxCell>
        <mxCell id="mNVwAcbcl_QrP8iyDvm8-1135" value="Caroline Tarnate" style="rounded=1;whiteSpace=wrap;html=1;fillColor=#dae8fc;strokeColor=#6c8ebf;strokeWidth=2;fontSize=15;" vertex="1" parent="mNVwAcbcl_QrP8iyDvm8-1158">
          <mxGeometry x="496.4102564102564" y="589.6551724137931" width="191.7948717948718" height="26.206896551724135" as="geometry" />
        </mxCell>
        <mxCell id="mNVwAcbcl_QrP8iyDvm8-1136" value="Keith Laurel Tarnate" style="rounded=1;whiteSpace=wrap;html=1;fillColor=#dae8fc;strokeColor=#6c8ebf;strokeWidth=2;fontSize=15;" vertex="1" parent="mNVwAcbcl_QrP8iyDvm8-1158">
          <mxGeometry x="247.52820512820523" y="596.2068965517241" width="180.5128205128205" height="13.103448275862068" as="geometry" />
        </mxCell>
        <mxCell id="mNVwAcbcl_QrP8iyDvm8-1137" value="" style="edgeStyle=orthogonalEdgeStyle;rounded=0;orthogonalLoop=1;jettySize=auto;html=1;fontFamily=Helvetica;fontSize=12;fontColor=default;" edge="1" parent="mNVwAcbcl_QrP8iyDvm8-1158" source="mNVwAcbcl_QrP8iyDvm8-1138" target="mNVwAcbcl_QrP8iyDvm8-1139">
          <mxGeometry relative="1" as="geometry" />
        </mxCell>
        <mxCell id="mNVwAcbcl_QrP8iyDvm8-1138" value="Divina Tarnate &amp;amp; Reynaldo Nangan" style="rounded=1;whiteSpace=wrap;html=1;fillColor=#dae8fc;strokeColor=#6c8ebf;strokeWidth=2;fontSize=12;" vertex="1" parent="mNVwAcbcl_QrP8iyDvm8-1158">
          <mxGeometry x="496.4102564102564" y="642.0689655172414" width="191.7948717948718" height="26.206896551724135" as="geometry" />
        </mxCell>
        <mxCell id="mNVwAcbcl_QrP8iyDvm8-1139" value="Ryco James" style="rounded=1;whiteSpace=wrap;html=1;fillColor=#dae8fc;strokeColor=#6c8ebf;strokeWidth=2;fontSize=15;" vertex="1" parent="mNVwAcbcl_QrP8iyDvm8-1158">
          <mxGeometry x="246.5128205128205" y="648.6206896551724" width="180.5128205128205" height="13.103448275862068" as="geometry" />
        </mxCell>
        <mxCell id="mNVwAcbcl_QrP8iyDvm8-1140" value="" style="edgeStyle=orthogonalEdgeStyle;rounded=0;orthogonalLoop=1;jettySize=auto;html=1;fontFamily=Helvetica;fontSize=12;fontColor=default;" edge="1" parent="mNVwAcbcl_QrP8iyDvm8-1158" source="mNVwAcbcl_QrP8iyDvm8-1141" target="mNVwAcbcl_QrP8iyDvm8-1133">
          <mxGeometry relative="1" as="geometry" />
        </mxCell>
        <mxCell id="mNVwAcbcl_QrP8iyDvm8-1141" value="Elma Viva &amp;amp; Mark Tarnate" style="whiteSpace=wrap;html=1;rounded=1;strokeColor=#6c8ebf;fillColor=#dae8fc;strokeWidth=2;fontSize=15;" vertex="1" parent="mNVwAcbcl_QrP8iyDvm8-1158">
          <mxGeometry x="755.8974358974359" y="537.2413793103448" width="203.07692307692307" height="26.206896551724135" as="geometry" />
        </mxCell>
        <mxCell id="mNVwAcbcl_QrP8iyDvm8-1142" value="" style="endArrow=classic;html=1;rounded=0;fontFamily=Helvetica;fontSize=12;fontColor=default;" edge="1" parent="mNVwAcbcl_QrP8iyDvm8-1158">
          <mxGeometry width="50" height="50" relative="1" as="geometry">
            <mxPoint x="722.051282051282" y="445.3862068965518" as="sourcePoint" />
            <mxPoint x="688.2051282051282" y="445.3862068965518" as="targetPoint" />
          </mxGeometry>
        </mxCell>
        <mxCell id="mNVwAcbcl_QrP8iyDvm8-1143" value="" style="endArrow=classic;html=1;rounded=0;fontFamily=Helvetica;fontSize=12;fontColor=default;" edge="1" parent="mNVwAcbcl_QrP8iyDvm8-1158">
          <mxGeometry width="50" height="50" relative="1" as="geometry">
            <mxPoint x="722.051282051282" y="497.8000000000001" as="sourcePoint" />
            <mxPoint x="688.2051282051282" y="497.8000000000001" as="targetPoint" />
          </mxGeometry>
        </mxCell>
        <mxCell id="mNVwAcbcl_QrP8iyDvm8-1144" value="" style="endArrow=classic;html=1;rounded=0;fontFamily=Helvetica;fontSize=12;fontColor=default;" edge="1" parent="mNVwAcbcl_QrP8iyDvm8-1158">
          <mxGeometry width="50" height="50" relative="1" as="geometry">
            <mxPoint x="722.051282051282" y="602.6275862068967" as="sourcePoint" />
            <mxPoint x="688.2051282051282" y="602.6275862068967" as="targetPoint" />
          </mxGeometry>
        </mxCell>
        <mxCell id="mNVwAcbcl_QrP8iyDvm8-1145" value="" style="endArrow=classic;html=1;rounded=0;fontFamily=Helvetica;fontSize=12;fontColor=default;" edge="1" parent="mNVwAcbcl_QrP8iyDvm8-1158">
          <mxGeometry width="50" height="50" relative="1" as="geometry">
            <mxPoint x="722.051282051282" y="655.041379310345" as="sourcePoint" />
            <mxPoint x="688.2051282051282" y="655.041379310345" as="targetPoint" />
          </mxGeometry>
        </mxCell>
        <mxCell id="mNVwAcbcl_QrP8iyDvm8-1146" value="" style="endArrow=none;html=1;rounded=0;fontFamily=Helvetica;fontSize=12;fontColor=default;" edge="1" parent="mNVwAcbcl_QrP8iyDvm8-1158">
          <mxGeometry width="50" height="50" relative="1" as="geometry">
            <mxPoint x="722.051282051282" y="655.1724137931034" as="sourcePoint" />
            <mxPoint x="722.051282051282" y="445.51724137931035" as="targetPoint" />
          </mxGeometry>
        </mxCell>
        <mxCell id="mNVwAcbcl_QrP8iyDvm8-1147" value="William Viva &amp;amp; Delia Maglinte" style="whiteSpace=wrap;html=1;rounded=1;strokeColor=#6c8ebf;fillColor=#dae8fc;strokeWidth=2;fontSize=15;" vertex="1" parent="mNVwAcbcl_QrP8iyDvm8-1158">
          <mxGeometry x="755.8974358974359" y="714.1379310344828" width="203.07692307692307" height="26.206896551724135" as="geometry" />
        </mxCell>
        <mxCell id="mNVwAcbcl_QrP8iyDvm8-1148" value="Rowena Viva" style="rounded=1;whiteSpace=wrap;html=1;fillColor=#dae8fc;strokeColor=#6c8ebf;strokeWidth=2;fontSize=15;" vertex="1" parent="mNVwAcbcl_QrP8iyDvm8-1158">
          <mxGeometry x="496.4102564102564" y="694.4827586206897" width="191.7948717948718" height="26.206896551724135" as="geometry" />
        </mxCell>
        <mxCell id="mNVwAcbcl_QrP8iyDvm8-1149" value="Karen Viva" style="rounded=1;whiteSpace=wrap;html=1;fillColor=#dae8fc;strokeColor=#6c8ebf;strokeWidth=2;fontSize=15;" vertex="1" parent="mNVwAcbcl_QrP8iyDvm8-1158">
          <mxGeometry x="496.4102564102564" y="733.7931034482758" width="191.7948717948718" height="26.206896551724135" as="geometry" />
        </mxCell>
        <mxCell id="mNVwAcbcl_QrP8iyDvm8-1150" value="" style="endArrow=none;html=1;rounded=0;fontFamily=Helvetica;fontSize=12;fontColor=default;exitX=0;exitY=0.5;exitDx=0;exitDy=0;" edge="1" parent="mNVwAcbcl_QrP8iyDvm8-1158">
          <mxGeometry width="50" height="50" relative="1" as="geometry">
            <mxPoint x="755.8974358974359" y="727.1496551724141" as="sourcePoint" />
            <mxPoint x="722.051282051282" y="727.1496551724141" as="targetPoint" />
          </mxGeometry>
        </mxCell>
        <mxCell id="mNVwAcbcl_QrP8iyDvm8-1151" value="" style="endArrow=none;html=1;rounded=0;fontFamily=Helvetica;fontSize=12;fontColor=default;" edge="1" parent="mNVwAcbcl_QrP8iyDvm8-1158">
          <mxGeometry width="50" height="50" relative="1" as="geometry">
            <mxPoint x="722.051282051282" y="746.8965517241379" as="sourcePoint" />
            <mxPoint x="722.051282051282" y="707.4027586206898" as="targetPoint" />
          </mxGeometry>
        </mxCell>
        <mxCell id="mNVwAcbcl_QrP8iyDvm8-1152" value="" style="endArrow=classic;html=1;rounded=0;fontFamily=Helvetica;fontSize=12;fontColor=default;entryX=1.015;entryY=0.543;entryDx=0;entryDy=0;entryPerimeter=0;" edge="1" parent="mNVwAcbcl_QrP8iyDvm8-1158">
          <mxGeometry width="50" height="50" relative="1" as="geometry">
            <mxPoint x="722.051282051282" y="707.4879310344829" as="sourcePoint" />
            <mxPoint x="688.2051282051282" y="707.4027586206898" as="targetPoint" />
          </mxGeometry>
        </mxCell>
        <mxCell id="mNVwAcbcl_QrP8iyDvm8-1153" value="" style="endArrow=classic;html=1;rounded=0;fontFamily=Helvetica;fontSize=12;fontColor=default;entryX=1.015;entryY=0.543;entryDx=0;entryDy=0;entryPerimeter=0;" edge="1" parent="mNVwAcbcl_QrP8iyDvm8-1158">
          <mxGeometry width="50" height="50" relative="1" as="geometry">
            <mxPoint x="722.051282051282" y="746.8900000000004" as="sourcePoint" />
            <mxPoint x="688.2051282051282" y="746.8048275862072" as="targetPoint" />
          </mxGeometry>
        </mxCell>
        <mxCell id="mNVwAcbcl_QrP8iyDvm8-1154" value="" style="endArrow=classic;html=1;rounded=0;fontFamily=Helvetica;fontSize=12;fontColor=default;entryX=1.015;entryY=0.543;entryDx=0;entryDy=0;entryPerimeter=0;" edge="1" parent="mNVwAcbcl_QrP8iyDvm8-1158">
          <mxGeometry width="50" height="50" relative="1" as="geometry">
            <mxPoint x="992.8205128205128" y="727.1299999999999" as="sourcePoint" />
            <mxPoint x="958.974358974359" y="727.0448275862068" as="targetPoint" />
          </mxGeometry>
        </mxCell>
        <mxCell id="mNVwAcbcl_QrP8iyDvm8-1155" value="" style="endArrow=classic;html=1;rounded=0;fontFamily=Helvetica;fontSize=12;fontColor=default;entryX=1.015;entryY=0.543;entryDx=0;entryDy=0;entryPerimeter=0;" edge="1" parent="mNVwAcbcl_QrP8iyDvm8-1158">
          <mxGeometry width="50" height="50" relative="1" as="geometry">
            <mxPoint x="992.8205128205128" y="550.233448275862" as="sourcePoint" />
            <mxPoint x="958.974358974359" y="550.1482758620688" as="targetPoint" />
          </mxGeometry>
        </mxCell>
        <mxCell id="mNVwAcbcl_QrP8iyDvm8-1156" value="" style="endArrow=classic;html=1;rounded=0;fontFamily=Helvetica;fontSize=12;fontColor=default;entryX=1.015;entryY=0.543;entryDx=0;entryDy=0;entryPerimeter=0;" edge="1" parent="mNVwAcbcl_QrP8iyDvm8-1158">
          <mxGeometry width="50" height="50" relative="1" as="geometry">
            <mxPoint x="992.8205128205128" y="242.3024137931034" as="sourcePoint" />
            <mxPoint x="958.974358974359" y="242.21724137931022" as="targetPoint" />
          </mxGeometry>
        </mxCell>
        <mxCell id="mNVwAcbcl_QrP8iyDvm8-1157" value="3. Felix (Lumas-e) Viva+ &amp;amp; Patricia Ligunan+" style="rounded=1;whiteSpace=wrap;html=1;strokeColor=#6c8ebf;fillColor=#dae8fc;strokeWidth=2;fontSize=15;" vertex="1" parent="mNVwAcbcl_QrP8iyDvm8-1158">
          <mxGeometry x="1037.95" y="458.62" width="282.05" height="40" as="geometry" />
        </mxCell>
        <mxCell id="mNVwAcbcl_QrP8iyDvm8-1159" value="" style="endArrow=none;html=1;rounded=0;" edge="1" parent="mNVwAcbcl_QrP8iyDvm8-1158">
          <mxGeometry width="50" height="50" relative="1" as="geometry">
            <mxPoint x="992" y="730" as="sourcePoint" />
            <mxPoint x="992" y="242.28000000000003" as="targetPoint" />
          </mxGeometry>
        </mxCell>
        <mxCell id="mNVwAcbcl_QrP8iyDvm8-1160" value="" style="endArrow=none;html=1;rounded=0;" edge="1" parent="mNVwAcbcl_QrP8iyDvm8-1158">
          <mxGeometry width="50" height="50" relative="1" as="geometry">
            <mxPoint x="990" y="473" as="sourcePoint" />
            <mxPoint x="1037.95" y="472.93000000000006" as="targetPoint" />
          </mxGeometry>
        </mxCell>
      </root>
    </mxGraphModel>
  </diagram>
</mxfile>
